<mxfile host="app.diagrams.net" modified="2024-06-09T05:59:33.822Z" agent="Mozilla/5.0 (Windows NT 10.0; Win64; x64) AppleWebKit/537.36 (KHTML, like Gecko) Chrome/125.0.0.0 Safari/537.36" version="24.5.2" etag="b6K9E6J4GuyyOv9q7ZYz" type="github">
  <diagram name="Page-1" id="S0-kmnnWIh4VnvRRBHX8">
    <mxGraphModel>
      <root>
        <mxCell id="0" />
        <mxCell id="1" parent="0" />
      </root>
    </mxGraphModel>
  </diagram>
</mxfile>
